<svg width="18" height="19" viewBox="0 0 18 19" fill="none" xmlns="http://www.w3.org/2000/svg">
<g id="utility / article">
<path id="Vector" d="M3 4.4375C3 4.33395 3.08395 4.25 3.1875 4.25H14.8125C14.9161 4.25 15 4.33395 15 4.4375V5.5625C15 5.66605 14.9161 5.75 14.8125 5.75H3.1875C3.08395 5.75 3 5.66605 3 5.5625V4.4375ZM3 7.4375C3 7.33395 3.08395 7.25 3.1875 7.25H14.8125C14.9161 7.25 15 7.33395 15 7.4375V8.5625C15 8.66605 14.9161 8.75 14.8125 8.75H3.1875C3.08395 8.75 3 8.66605 3 8.5625V7.4375ZM3 10.4375C3 10.3339 3.08395 10.25 3.1875 10.25H14.8125C14.9161 10.25 15 10.3339 15 10.4375V11.5625C15 11.6661 14.9161 11.75 14.8125 11.75H3.1875C3.08395 11.75 3 11.6661 3 11.5625V10.4375ZM3 13.4375C3 13.3339 3.08395 13.25 3.1875 13.25H11.8125C11.9161 13.25 12 13.3339 12 13.4375V14.5625C12 14.6661 11.9161 14.75 11.8125 14.75H3.1875C3.08395 14.75 3 14.6661 3 14.5625V13.4375Z" fill="#D60056"/>
</g>
</svg>
