<svg width="384" height="385" viewBox="0 0 384 385" fill="none" xmlns="http://www.w3.org/2000/svg">
  <path d="M114.991 165.687C114.895 168.889 115.318 172.084 116.245 175.15C117.161 177.79 118.305 180.346 119.665 182.788C120.151 183.495 120.427 184.325 120.463 185.182C120.403 185.84 120.185 186.474 119.828 187.03C119.471 187.585 118.985 188.047 118.411 188.374L111.685 192.82C110.885 193.392 109.931 193.71 108.949 193.732C108.342 193.722 107.745 193.585 107.195 193.33C106.645 193.075 106.155 192.707 105.756 192.25C104.28 190.771 102.979 189.126 101.88 187.348C100.854 185.524 99.8283 183.472 98.6882 181.078C94.9487 185.75 90.1896 189.505 84.7752 192.054C79.3608 194.603 73.4349 195.879 67.4512 195.784C63.5856 195.993 59.7174 195.425 56.0753 194.113C52.4331 192.801 49.091 190.772 46.2466 188.146C43.6002 185.475 41.5431 182.279 40.2078 178.764C38.8726 175.25 38.2888 171.494 38.4943 167.74C38.3561 163.608 39.1445 159.497 40.8015 155.71C42.4586 151.922 44.9423 148.554 48.0706 145.851C55.5001 140.059 64.7706 137.145 74.1775 137.643C77.9921 137.626 81.8027 137.892 85.5778 138.441C89.568 139.011 93.5581 139.809 97.7762 140.721V132.968C98.3852 126.869 96.585 120.772 92.7601 115.982C87.8311 112.177 81.6235 110.42 75.4315 111.08C71.5915 111.098 67.7664 111.557 64.0311 112.448C60.1433 113.37 56.332 114.59 52.6308 116.096L48.8686 117.464H47.2726C45.6765 117.464 44.9925 116.324 44.9925 114.158V108.914C44.8915 107.658 45.1276 106.399 45.6765 105.266C46.5247 104.291 47.5751 103.513 48.7546 102.985C53.023 100.932 57.4931 99.3272 62.0931 98.1973C67.4924 96.807 73.0482 96.1173 78.6236 96.1452C88.6738 95.2692 98.6654 98.3813 106.44 104.81C109.633 108.315 112.063 112.446 113.574 116.94C115.085 121.435 115.645 126.194 115.219 130.916L114.991 165.687ZM71.8974 181.876C75.78 181.882 79.6352 181.226 83.2977 179.938C87.1987 178.607 90.6657 176.243 93.3301 173.098C95.089 171.196 96.3432 168.883 96.9782 166.371C97.7149 163.35 98.0597 160.247 98.0042 157.137V152.349C94.6547 151.653 91.2665 151.158 87.8579 150.867C84.4378 150.867 81.1317 150.867 77.8256 150.867C72.2522 150.42 66.6952 151.91 62.0931 155.085C60.3145 156.582 58.9131 158.477 58.0021 160.616C57.0911 162.755 56.6961 165.078 56.8489 167.398C56.6612 169.463 56.9093 171.545 57.577 173.509C58.2447 175.473 59.3171 177.275 60.725 178.798C63.8947 181.263 67.9126 182.37 71.8974 181.876ZM157.286 193.276C155.841 193.411 154.394 193.049 153.182 192.25C152.025 191.098 151.232 189.631 150.902 188.032L126.049 105.95C125.544 104.555 125.237 103.097 125.137 101.617C125.137 99.9074 125.935 98.9953 127.645 98.9953H138.134C139.578 98.861 141.026 99.2229 142.238 100.021C143.348 101.191 144.1 102.655 144.404 104.239L162.302 175.15L179.061 104.354C179.236 102.752 179.961 101.261 181.113 100.135C182.367 99.3366 183.85 98.9757 185.331 99.1093H193.881C195.398 98.9758 196.918 99.3356 198.213 100.135C199.282 101.319 199.994 102.782 200.266 104.354L216.796 175.15L235.151 104.011C235.455 102.427 236.206 100.963 237.317 99.7934C238.528 98.9949 239.976 98.633 241.421 98.7673H251.339C251.692 98.7317 252.049 98.7751 252.383 98.8943C252.718 99.0135 253.021 99.2055 253.272 99.4565C253.523 99.7074 253.715 100.011 253.834 100.345C253.953 100.68 253.997 101.036 253.961 101.389C254.004 101.959 254.004 102.53 253.961 103.099C253.961 103.099 253.961 104.582 253.277 105.722L227.512 187.804C227.208 189.388 226.457 190.852 225.346 192.022C224.121 192.789 222.684 193.149 221.242 193.048H212.122C210.623 193.208 209.118 192.801 207.904 191.908C206.774 190.766 206.053 189.284 205.852 187.69L189.321 119.288L172.905 187.69C172.704 189.284 171.982 190.766 170.853 191.908C169.629 192.782 168.132 193.186 166.634 193.048L157.286 193.276ZM294.091 196.012C288.566 196.039 283.058 195.427 277.674 194.188C273.436 193.338 269.333 191.919 265.476 189.97C264.112 189.32 262.964 188.291 262.17 187.006C261.727 186.04 261.494 184.991 261.485 183.928V178.57C261.485 176.404 262.284 175.264 263.88 175.264C264.559 175.155 265.252 175.155 265.932 175.264L268.554 176.404C272.208 178.037 276.031 179.26 279.954 180.052C284.111 180.957 288.354 181.416 292.608 181.42C298.009 181.756 303.392 180.529 308.113 177.886C309.827 176.843 311.236 175.366 312.197 173.605C313.158 171.843 313.637 169.859 313.585 167.854C313.639 166.489 313.414 165.129 312.924 163.854C312.434 162.58 311.689 161.42 310.735 160.443C307.649 157.769 303.979 155.855 300.019 154.857L284.628 149.955C277.97 148.281 272.019 144.527 267.642 139.239C264.199 134.8 262.316 129.351 262.283 123.734C262.221 119.75 263.204 115.82 265.134 112.334C267.041 108.908 269.642 105.918 272.772 103.555C276.199 101.039 280.065 99.1829 284.172 98.0833C288.544 96.8239 293.076 96.2094 297.625 96.2592C299.978 96.093 302.34 96.093 304.693 96.2592L311.647 97.3993L317.689 99.1093L322.135 100.933C323.328 101.638 324.405 102.522 325.328 103.555C325.963 104.622 326.279 105.849 326.24 107.09V112.106C326.24 114.386 325.442 115.526 323.845 115.526C322.397 115.36 320.999 114.894 319.741 114.158C313.271 111.346 306.275 109.946 299.221 110.054C294.333 109.817 289.465 110.837 285.084 113.018C283.457 114.008 282.131 115.423 281.247 117.11C280.364 118.797 279.956 120.693 280.068 122.594C280.063 123.999 280.343 125.39 280.892 126.684C281.441 127.977 282.246 129.146 283.26 130.118C286.625 132.811 290.505 134.79 294.661 135.933L309.709 140.721C316.088 142.413 321.809 145.989 326.126 150.981C329.394 155.266 331.121 160.527 331.028 165.915C331.095 170.178 330.158 174.396 328.292 178.228C326.461 181.899 323.808 185.098 320.539 187.576C317.157 190.295 313.288 192.346 309.139 193.618C304.163 195.218 298.975 196.064 293.749 196.126L294.091 196.012Z" fill="white"/>
  <path fill-rule="evenodd" clip-rule="evenodd" d="M313.814 248.455C275.657 274.385 230.553 288.174 184.42 288.014C126.091 288.33 69.7451 266.864 26.4108 227.82C23.1047 224.856 26.4108 220.752 30.0589 223.032C78.1554 250.589 132.636 265.055 188.068 264.985C229.504 264.817 270.497 256.448 308.684 240.361C314.612 237.853 319.628 244.237 313.814 248.455Z" fill="#FF9900"/>
  <path fill-rule="evenodd" clip-rule="evenodd" d="M328.406 232.152C323.846 226.338 298.765 229.416 287.479 230.784C284.058 230.784 283.602 228.162 286.681 225.996C306.631 211.974 339.464 215.964 343.682 220.752C347.901 225.54 342.656 258.373 323.846 274.106C320.996 276.5 318.26 275.132 319.514 272.053C323.39 261.223 332.852 237.624 328.406 232.152Z" fill="#FF9900"/>
</svg>
