<?xml version="1.0" encoding="UTF-8"?>
<svg width="20" height="12" viewBox="0 0 20 12" fill="none" xmlns="http://www.w3.org/2000/svg">
  <path d="M2.16675 5.25C1.75253 5.25 1.41675 5.58579 1.41675 6C1.41675 6.41421 1.75253 6.75 2.16675 6.75L2.16675 5.25ZM18.6971 6.53033C18.99 6.23744 18.99 5.76256 18.6971 5.46967L13.9241 0.696698C13.6312 0.403805 13.1563 0.403805 12.8634 0.696698C12.5706 0.989592 12.5706 1.46447 12.8634 1.75736L17.1061 6L12.8634 10.2426C12.5706 10.5355 12.5706 11.0104 12.8634 11.3033C13.1563 11.5962 13.6312 11.5962 13.9241 11.3033L18.6971 6.53033ZM2.16675 6.75L18.1667 6.75L18.1667 5.25L2.16675 5.25L2.16675 6.75Z" fill="#FF1675"/>
</svg>