<svg width="12" height="12" viewBox="0 0 12 12" fill="white" xmlns="http://www.w3.org/2000/svg">
  <path d="M0 0.9375C0 0.833947 0.0839466 0.75 0.1875 0.75H11.8125C11.9161 0.75 12 0.833947 12 0.9375V2.0625C12 2.16605 11.9161 2.25 11.8125 2.25H0.1875C0.0839466 2.25 0 2.16605 0 2.0625V0.9375ZM0 3.9375C0 3.83395 0.0839466 3.75 0.1875 3.75H11.8125C11.9161 3.75 12 3.83395 12 3.9375V5.0625C12 5.16605 11.9161 5.25 11.8125 5.25H0.1875C0.0839466 5.25 0 5.16605 0 5.0625V3.9375ZM0 6.9375C0 6.83395 0.0839466 6.75 0.1875 6.75H11.8125C11.9161 6.75 12 6.83395 12 6.9375V8.0625C12 8.16605 11.9161 8.25 11.8125 8.25H0.1875C0.0839466 8.25 0 8.16605 0 8.0625V6.9375ZM0 9.9375C0 9.83395 0.0839466 9.75 0.1875 9.75H8.8125C8.91605 9.75 9 9.83395 9 9.9375V11.0625C9 11.1661 8.91605 11.25 8.8125 11.25H0.1875C0.0839464 11.25 0 11.1661 0 11.0625V9.9375Z"/>
</svg>
