<svg width="14" height="16" viewBox="0 0 14 16" fill="white" xmlns="http://www.w3.org/2000/svg">
<path fill-rule="evenodd" clip-rule="evenodd" d="M13.75 14.75V1.25C13.75 0.835815 13.4142 0.5 13 0.5H2.5C2.08582 0.5 1.75 0.835815 1.75 1.25V3.5H0.625C0.417908 3.5 0.25 3.66791 0.25 3.875V4.625C0.25 4.83209 0.417908 5 0.625 5H1.75V7.25H0.625C0.417908 7.25 0.25 7.41791 0.25 7.625V8.375C0.25 8.58209 0.417908 8.75 0.625 8.75H1.75V11H0.625C0.417908 11 0.25 11.1679 0.25 11.375V12.125C0.25 12.3321 0.417908 12.5 0.625 12.5H1.75V14.75C1.75 15.1642 2.08582 15.5 2.5 15.5H13C13.4142 15.5 13.75 15.1642 13.75 14.75ZM12.2515 14H3.25V12.5H3.625C3.83209 12.5 4 12.3321 4 12.125V11.375C4 11.1679 3.83209 11 3.625 11H3.25V8.75H3.625C3.83209 8.75 4 8.58209 4 8.375V7.625C4 7.41791 3.83209 7.25 3.625 7.25H3.25V5H3.625C3.83209 5 4 4.83209 4 4.625V3.875C4 3.66791 3.83209 3.5 3.625 3.5H3.25V2H12.25L12.2515 14ZM5.875 4.25H10.375C10.5821 4.25 10.75 4.41791 10.75 4.625V8.375C10.75 8.58209 10.5821 8.75 10.375 8.75H5.875C5.66791 8.75 5.5 8.58209 5.5 8.375V4.625C5.5 4.41791 5.66791 4.25 5.875 4.25ZM7 7.25V5.75H9.25V7.25H7Z"/>
</svg>
