<svg width="16" height="16" viewBox="0 0 16 16" fill="#130F25" xmlns="http://www.w3.org/2000/svg">
  <path d="M10.766 8.15601L6.7915 10.8057C6.76074 10.8262 6.72449 10.8372 6.6875 10.8372C6.58395 10.8372 6.5 10.7532 6.5 10.6497V5.35035C6.5 5.31334 6.51099 5.27713 6.53149 5.24635C6.5889 5.16017 6.70535 5.13689 6.7915 5.19434L10.766 7.84399C10.7866 7.85773 10.8043 7.8754 10.818 7.896C10.8754 7.98215 10.8521 8.09856 10.766 8.15601Z"/>
  <path d="M8 0.5C3.85999 0.5 0.5 3.86001 0.5 8C0.5 12.14 3.85999 15.5 8 15.5C12.14 15.5 15.5 12.14 15.5 8C15.5 3.86001 12.14 0.5 8 0.5ZM8 14C4.69247 14 2 11.3075 2 8C2 4.6925 4.69247 2 8 2C11.3075 2 14 4.6925 14 8C14 11.3075 11.3075 14 8 14Z"/>
</svg>
