<svg width="16" height="15" viewBox="0 0 16 15" fill="white" xmlns="http://www.w3.org/2000/svg">
<path fill-rule="evenodd" clip-rule="evenodd" d="M2.88156 13.2319C2.92889 13.2762 2.98877 13.3296 3.06137 13.3922C3.0838 13.4116 3.1098 13.4263 3.13791 13.4356C3.25574 13.4743 3.38272 13.4103 3.42145 13.2925C3.48453 13.1011 3.57928 12.8445 3.70581 12.5226C3.76056 12.3833 3.72733 12.2248 3.62112 12.1193C3.55365 12.0523 3.49936 11.9965 3.45816 11.952C2.43671 10.8486 1.8125 9.37218 1.8125 7.75C1.8125 4.33275 4.5827 1.5625 8 1.5625C11.4173 1.5625 14.1875 4.33275 14.1875 7.75C14.1875 9.35579 13.5758 10.8187 12.5728 11.9184C12.5246 11.9712 12.4598 12.0381 12.3784 12.1192C12.2725 12.2247 12.2393 12.383 12.294 12.5221C12.4206 12.8443 12.5155 13.1011 12.5786 13.2926C12.5878 13.3208 12.6025 13.3468 12.6219 13.3693C12.7032 13.4634 12.8452 13.4739 12.9395 13.3927C12.9833 13.3548 13.0209 13.3216 13.0522 13.2931C14.5563 11.9215 15.5 9.94594 15.5 7.75C15.5 3.60788 12.1421 0.25 8 0.25C3.85788 0.25 0.5 3.60788 0.5 7.75C0.5 9.91353 1.41608 11.8631 2.88156 13.2319ZM4.35803 10.3937L4.35904 10.395C4.37396 10.4155 4.3909 10.4345 4.40967 10.4515C4.56284 10.5909 4.79996 10.5798 4.93939 10.4267L5.32776 10.0001C5.4455 9.87086 5.45822 9.67741 5.35852 9.53381C5.3457 9.51527 5.33426 9.49834 5.32428 9.48296C5.00055 8.98409 4.8125 8.38899 4.8125 7.75C4.8125 5.98958 6.23962 4.5625 8 4.5625C9.76038 4.5625 11.1875 5.98958 11.1875 7.75C11.1875 8.36404 11.0138 8.93753 10.7131 9.42404C10.6938 9.45503 10.67 9.49106 10.6412 9.53221C10.541 9.67586 10.5535 9.86981 10.6715 9.99931L11.0733 10.4407C11.0894 10.4583 11.1071 10.4743 11.1263 10.4884C11.2863 10.6059 11.5113 10.5715 11.629 10.4115C12.1765 9.66611 12.5 8.74582 12.5 7.75C12.5 5.26471 10.4853 3.25 8 3.25C5.51471 3.25 3.5 5.26471 3.5 7.75C3.5 8.7379 3.81833 9.65146 4.35803 10.3937ZM8 10.375C9.3591 10.375 10.4104 11.5039 11.1537 13.7616C11.2509 14.0567 11.0905 14.3746 10.7954 14.4718C10.7386 14.4905 10.6792 14.5 10.6195 14.5H5.38049C5.06985 14.5 4.81799 14.2482 4.81799 13.9375C4.81799 13.8777 4.82751 13.8183 4.84619 13.7616C5.5896 11.5038 6.64081 10.375 8 10.375ZM6.3125 7.75C6.3125 8.68196 7.06799 9.4375 8 9.4375C8.93201 9.4375 9.6875 8.68196 9.6875 7.75C9.6875 6.81804 8.93201 6.0625 8 6.0625C7.06799 6.0625 6.3125 6.81804 6.3125 7.75Z"/>
</svg>
