<?xml version="1.0" encoding="utf-8"?>
<!-- Generator: Adobe Illustrator 19.0.1, SVG Export Plug-In . SVG Version: 6.00 Build 0)  -->
<svg version="1.1" id="Layer_1" xmlns="http://www.w3.org/2000/svg" xmlns:xlink="http://www.w3.org/1999/xlink" x="0px" y="0px"
	 viewBox="-1028.2 1048 17.3 17.3" style="enable-background:new -1028.2 1048 17.3 17.3;" xml:space="preserve">
<style type="text/css">
	.st0{fill:#555555;}
</style>
<path class="st0" d="M-1012.9,1055.4h-1.5c0.1,0.4,0.2,0.9,0.2,1.3c0,2.9-2.4,5.3-5.3,5.3s-5.3-2.4-5.3-5.3c0-0.5,0.1-0.9,0.2-1.3
	h-1.5v7.3c0,0.4,0.3,0.7,0.7,0.7h12c0.4,0,0.7-0.3,0.7-0.7v-7.3H-1012.9z M-1012.9,1050.7c0-0.4-0.3-0.7-0.7-0.7h-2
	c-0.4,0-0.7,0.3-0.7,0.7v2c0,0.4,0.3,0.7,0.7,0.7h2c0.4,0,0.7-0.3,0.7-0.7V1050.7z M-1019.6,1053.4c-1.8,0-3.3,1.5-3.3,3.3
	c0,1.8,1.5,3.3,3.3,3.3s3.3-1.5,3.3-3.3C-1016.2,1054.9-1017.7,1053.4-1019.6,1053.4 M-1012.9,1065.3h-13.3c-1.1,0-2-0.9-2-2V1050
	c0-1.1,0.9-2,2-2h13.3c1.1,0,2,0.9,2,2v13.3C-1010.9,1064.4-1011.8,1065.3-1012.9,1065.3"/>
</svg>
