<?xml version="1.0" encoding="utf-8"?>
<!-- Generator: Adobe Illustrator 19.0.0, SVG Export Plug-In . SVG Version: 6.00 Build 0)  -->
<svg version="1.1" id="Layer_1" xmlns="http://www.w3.org/2000/svg" xmlns:xlink="http://www.w3.org/1999/xlink" x="0px" y="0px"
	 viewBox="0 0 29.7 28.4" style="enable-background:new 0 0 29.7 28.4;" xml:space="preserve">
<style type="text/css">
	.st0{fill:#FFFFFF;}
</style>
<g id="XMLID_353_">
	<path id="XMLID_355_" class="st0" d="M6.7,28.4H0.4V9.2h6.4V28.4z M3.6,6.6L3.6,6.6C1.4,6.6,0,5.2,0,3.3C0,1.4,1.4,0,3.6,0
		c2.2,0,3.5,1.4,3.6,3.3C7.2,5.2,5.8,6.6,3.6,6.6z M29.7,28.4h-6.4V18.2c0-2.6-0.9-4.3-3.2-4.3c-1.8,0-2.8,1.2-3.3,2.3
		c-0.2,0.4-0.2,1-0.2,1.6v10.7h-6.4c0,0,0.1-17.4,0-19.2h6.4V12c0.8-1.3,2.4-3.2,5.7-3.2c4.2,0,7.3,2.7,7.3,8.6V28.4z"/>
	<path id="XMLID_354_" class="st0" d="M16.6,12L16.6,12C16.6,12,16.6,12,16.6,12L16.6,12z"/>
</g>
</svg>
