<?xml version="1.0" encoding="utf-8"?>
<!-- Generator: Adobe Illustrator 19.0.0, SVG Export Plug-In . SVG Version: 6.00 Build 0)  -->
<svg version="1.1" id="Layer_1" xmlns="http://www.w3.org/2000/svg" xmlns:xlink="http://www.w3.org/1999/xlink" x="0px" y="0px"
	 viewBox="0 0 24.8 29.7" style="enable-background:new 0 0 24.8 29.7;" xml:space="preserve">
<style type="text/css">
	.st0{fill:#FFFFFF;}
</style>
<g id="XMLID_309_">
	<path id="XMLID_343_" class="st0" d="M9.4,8.9c0,0.7,0.2,1.2,0.6,1.6c0.4,0.4,0.9,0.6,1.6,0.6c0.7,0,1.2-0.2,1.6-0.6
		c0.4-0.4,0.6-0.9,0.6-1.6V4.8c0-0.6-0.2-1.1-0.6-1.5c-0.4-0.4-0.9-0.6-1.5-0.6c-0.7,0-1.2,0.2-1.6,0.6C9.6,3.6,9.4,4.1,9.4,4.7
		L9.4,8.9z M10.9,4.7c0-0.2,0.1-0.3,0.2-0.4c0.1-0.1,0.3-0.2,0.4-0.2c0.2,0,0.4,0.1,0.5,0.2c0.1,0.1,0.2,0.3,0.2,0.4v4.4
		c0,0.2-0.1,0.4-0.2,0.5c-0.1,0.1-0.3,0.2-0.5,0.2c-0.2,0-0.4-0.1-0.5-0.2c-0.1-0.1-0.2-0.3-0.2-0.5V4.7z"/>
	<polygon id="XMLID_342_" class="st0" points="5.8,11 7.5,11 7.5,6.4 9.5,0 7.7,0 6.7,4.4 6.6,4.4 5.5,0 3.8,0 5.8,6.6 	"/>
	<path id="XMLID_341_" class="st0" d="M15,19.8c-0.1,0-0.2,0-0.3,0.1c-0.1,0.1-0.2,0.1-0.3,0.2v5c0.1,0.1,0.2,0.2,0.4,0.3
		c0.1,0.1,0.2,0.1,0.4,0.1c0.2,0,0.3-0.1,0.4-0.2c0.1-0.1,0.1-0.3,0.1-0.6v-4.2c0-0.3-0.1-0.5-0.2-0.6C15.4,19.9,15.2,19.8,15,19.8z
		"/>
	<path id="XMLID_340_" class="st0" d="M20.5,19.8c-0.2,0-0.4,0.1-0.5,0.2c-0.1,0.1-0.2,0.4-0.2,0.7v0.8h1.3v-0.8
		c0-0.3-0.1-0.6-0.2-0.7C20.9,19.9,20.8,19.8,20.5,19.8z"/>
	<path id="XMLID_339_" class="st0" d="M16.1,11.1c0.3,0,0.6-0.1,0.9-0.3c0.3-0.2,0.6-0.4,0.9-0.8V11h1.5V2.9h-1.5V9
		c-0.1,0.2-0.3,0.3-0.5,0.4c-0.2,0.1-0.3,0.2-0.4,0.2c-0.1,0-0.2,0-0.3-0.1c-0.1-0.1-0.1-0.2-0.1-0.4V2.9H15v6.8
		c0,0.5,0.1,0.8,0.3,1.1C15.5,11,15.7,11.1,16.1,11.1z"/>
	<path id="XMLID_310_" class="st0" d="M24.6,16.7c0-2-1.6-3.5-3.6-3.5c-2.7-0.1-5.4-0.2-8.2-0.2c-0.1,0-0.3,0-0.4,0
		c-0.1,0-0.3,0-0.4,0c-2.8,0-5.5,0.1-8.2,0.2c-2,0-3.6,1.6-3.6,3.5C0,18.3,0,19.8,0,21.4c0,1.5,0,3.1,0.2,4.6c0,2,1.6,3.5,3.6,3.5
		c2.8,0.1,5.7,0.2,8.6,0.2c2.9,0,5.8,0,8.6-0.2c2,0,3.6-1.6,3.6-3.5c0.1-1.5,0.2-3.1,0.2-4.6C24.8,19.8,24.7,18.3,24.6,16.7z
		 M5.4,26.7H3.7v-9.4H1.9v-1.6h5.2v1.6H5.4V26.7z M11.4,26.7H9.9v-0.9c-0.3,0.3-0.6,0.6-0.9,0.8c-0.3,0.2-0.6,0.3-0.9,0.3
		c-0.3,0-0.6-0.1-0.8-0.4c-0.2-0.2-0.3-0.6-0.3-1.1v-6.8h1.5v6.2c0,0.2,0,0.3,0.1,0.4c0.1,0.1,0.2,0.1,0.3,0.1
		c0.1,0,0.2-0.1,0.4-0.2c0.2-0.1,0.3-0.3,0.5-0.4v-6.1h1.5V26.7z M17.2,25c0,0.6-0.1,1-0.4,1.3c-0.2,0.3-0.6,0.5-1,0.5
		c-0.3,0-0.6-0.1-0.8-0.2c-0.2-0.1-0.4-0.3-0.6-0.5v0.6h-1.5v-11h1.5v3.5c0.2-0.2,0.4-0.4,0.6-0.6c0.2-0.1,0.5-0.2,0.7-0.2
		c0.5,0,0.8,0.2,1.1,0.5c0.2,0.3,0.4,0.8,0.4,1.5V25z M22.7,22.8h-2.9v1.5c0,0.4,0,0.7,0.1,0.9c0.1,0.2,0.3,0.2,0.5,0.2
		c0.2,0,0.4-0.1,0.5-0.2c0.1-0.1,0.1-0.4,0.1-0.9v-0.6h1.5v0.6c0,0.8-0.2,1.5-0.6,1.9c-0.4,0.4-0.9,0.6-1.7,0.6
		c-0.7,0-1.2-0.2-1.6-0.7c-0.4-0.4-0.6-1.1-0.6-1.8v-3.6c0-0.7,0.2-1.3,0.6-1.7c0.4-0.4,1-0.7,1.6-0.7c0.7,0,1.2,0.2,1.6,0.6
		c0.4,0.4,0.6,1,0.6,1.8V22.8z"/>
</g>
</svg>
