<svg width="13" height="14" viewBox="0 0 13 14" fill="none" xmlns="http://www.w3.org/2000/svg">
<path d="M4.125 6.25C4.40114 6.25 4.625 6.47386 4.625 6.75V7C4.625 7.27614 4.40114 7.5 4.125 7.5H3.875C3.59886 7.5 3.375 7.27614 3.375 7V6.75C3.375 6.47386 3.59886 6.25 3.875 6.25H4.125ZM6.625 6.25C6.90114 6.25 7.125 6.47386 7.125 6.75V7C7.125 7.27614 6.90114 7.5 6.625 7.5H6.375C6.09886 7.5 5.875 7.27614 5.875 7V6.75C5.875 6.47386 6.09886 6.25 6.375 6.25H6.625ZM9.125 6.25C9.40114 6.25 9.625 6.47386 9.625 6.75V7C9.625 7.27614 9.40114 7.5 9.125 7.5H8.875C8.59886 7.5 8.375 7.27614 8.375 7V6.75C8.375 6.47386 8.59886 6.25 8.875 6.25H9.125ZM11.125 1.875C11.6773 1.875 12.125 2.31929 12.125 2.87157C12.125 4.98231 12.125 9.89281 12.125 12.1292C12.125 12.6815 11.6773 13.125 11.125 13.125H1.875C1.32272 13.125 0.875 12.6775 0.875 12.1252C0.875 9.26041 0.875001 5.73959 0.875 2.87475C0.875 2.32247 1.32282 1.875 1.8751 1.875C2.34168 1.875 2.75 1.875 2.75 1.875V1.125C2.75 0.848858 2.97386 0.625 3.25 0.625H3.5C3.77614 0.625 4 0.848858 4 1.125V1.875H9V1.125C9 0.848858 9.22386 0.625 9.5 0.625H9.75C10.0261 0.625 10.25 0.848858 10.25 1.125V1.875H11.125ZM10.875 11.875V5H2.125V11.875H10.875ZM4.125 8.75C4.40114 8.75 4.625 8.97386 4.625 9.25V9.5C4.625 9.77614 4.40114 10 4.125 10H3.875C3.59886 10 3.375 9.77614 3.375 9.5V9.25C3.375 8.97386 3.59886 8.75 3.875 8.75H4.125ZM6.625 8.75C6.90114 8.75 7.125 8.97386 7.125 9.25V9.5C7.125 9.77614 6.90114 10 6.625 10H6.375C6.09886 10 5.875 9.77614 5.875 9.5V9.25C5.875 8.97386 6.09886 8.75 6.375 8.75H6.625ZM9.125 8.75C9.40114 8.75 9.625 8.97386 9.625 9.25V9.5C9.625 9.77614 9.40114 10 9.125 10H8.875C8.59886 10 8.375 9.77614 8.375 9.5V9.25C8.375 8.97386 8.59886 8.75 8.875 8.75H9.125Z" fill="white"/>
</svg>
