<svg width="13" height="13" viewBox="0 0 13 13" fill="none" xmlns="http://www.w3.org/2000/svg">
<path d="M6.19563 3.37458H6.82063C6.9932 3.37458 7.13313 3.51449 7.13313 3.68708V6.23608L8.94537 8.04835C9.06741 8.17038 9.06741 8.36825 8.94537 8.49028L8.50344 8.93223C8.38141 9.05426 8.18354 9.05426 8.06151 8.93223L5.88313 6.75385V3.68708C5.88313 3.51449 6.02305 3.37458 6.19563 3.37458Z" fill="white"/>
<path fill-rule="evenodd" clip-rule="evenodd" d="M0.25 6.5C0.25 3.0538 3.0538 0.25 6.5 0.25C9.9462 0.25 12.75 3.0538 12.75 6.5C12.75 9.9462 9.9462 12.75 6.5 12.75C3.0538 12.75 0.25 9.9462 0.25 6.5ZM1.5 6.5C1.5 3.74304 3.74304 1.5 6.5 1.5C9.25696 1.5 11.5 3.74304 11.5 6.5C11.5 9.25696 9.25696 11.5 6.5 11.5C3.74304 11.5 1.5 9.25696 1.5 6.5Z" fill="white"/>
</svg>
