<svg width="13" height="13" viewBox="0 0 13 13" fill="none" xmlns="http://www.w3.org/2000/svg">
<path fill-rule="evenodd" clip-rule="evenodd" d="M0.25 6.5C0.25 3.04823 3.04823 0.25 6.5 0.25C8.15764 0.25 9.7473 0.908493 10.9194 2.0806C12.0915 3.2527 12.75 4.84236 12.75 6.5C12.75 8.15764 12.0915 9.7473 10.9194 10.9194C9.7473 12.0915 8.15764 12.75 6.5 12.75C4.84236 12.75 3.2527 12.0915 2.0806 10.9194C0.908493 9.7473 0.25 8.15764 0.25 6.5ZM1.5 6.5C1.5 6.06841 1.5547 5.64955 1.65755 5.25H3.82269C3.77463 5.66008 3.74998 6.07733 3.74998 6.50031C3.74998 6.92007 3.77486 7.33733 3.82368 7.75H1.65877C1.55417 7.34511 1.5 6.92534 1.5 6.5ZM2.16986 9C2.38646 9.37521 2.6528 9.72388 2.96446 10.0355C3.50272 10.5738 4.15106 10.9766 4.85655 11.2222C4.5056 10.5147 4.23422 9.76942 4.04807 9H2.16986ZM5.33926 9C5.59241 9.91522 5.98357 10.7878 6.5 11.5872C7.01643 10.7878 7.40752 9.91522 7.66074 9H5.33926ZM8.95178 9C8.76547 9.76942 8.49387 10.5148 8.14284 11.2224C8.84856 10.9769 9.49713 10.5739 10.0355 10.0355C10.3472 9.72388 10.6135 9.37521 10.8301 9H8.95178ZM11.3412 7.75H9.17632C9.22522 7.33733 9.25002 6.92007 9.25002 6.50031C9.25002 6.08031 9.22514 5.6629 9.17624 5.25H11.3412C11.4458 5.65489 11.5 6.07466 11.5 6.5C11.5 6.92534 11.4458 7.34511 11.3412 7.75ZM7.9164 7.75H5.0836C5.02821 7.33809 4.99998 6.92068 4.99998 6.50031C4.99998 6.07642 5.02814 5.65901 5.08261 5.25H7.91632C7.97179 5.66214 8.00002 6.07977 8.00002 6.50031C8.00002 6.92068 7.97179 7.33809 7.9164 7.75ZM4.0457 4H2.16887C2.76411 2.97095 3.7155 2.17375 4.85457 1.77702C4.50636 2.47763 4.23323 3.22211 4.0457 4ZM5.33698 4H7.66051C7.40714 3.08447 7.01582 2.21159 6.49939 1.41219C5.9886 2.20091 5.59317 3.07158 5.33698 4ZM8.95171 4H10.8301C10.6135 3.62479 10.3472 3.27612 10.0355 2.96446C9.49713 2.42606 8.84856 2.02307 8.14276 1.77756C8.49379 2.48511 8.7654 3.23058 8.95171 4Z" fill="white"/>
</svg>
