<svg width="13" height="13" viewBox="0 0 13 13" fill="none" xmlns="http://www.w3.org/2000/svg">
<path d="M4.69712 3.75962C4.69712 4.27738 4.27738 4.69712 3.75962 4.69712C3.24185 4.69712 2.82212 4.27738 2.82212 3.75962C2.82212 3.24185 3.24185 2.82212 3.75962 2.82212C4.27738 2.82212 4.69712 3.24185 4.69712 3.75962Z" fill="white"/>
<path fill-rule="evenodd" clip-rule="evenodd" d="M11.9349 8.26392L8.26346 11.9349C8.01001 12.1883 7.59909 12.1883 7.34564 11.9349L1.06856 5.65833C0.947022 5.53671 0.878586 5.37192 0.878434 5.19995L0.875 1.52472C0.874695 1.16599 1.16538 0.875 1.52403 0.875H5.19843C5.3707 0.875 5.5358 0.943359 5.65756 1.06528L11.935 7.34625C12.1884 7.5997 12.1883 8.01062 11.9349 8.26392ZM5.00098 2.125H2.125L2.12775 5.0022L7.75 10.5625L10.5625 7.75L5.00098 2.125Z" fill="white"/>
</svg>
