<?xml version="1.0" encoding="utf-8"?>
<!-- Generator: Adobe Illustrator 24.0.1, SVG Export Plug-In . SVG Version: 6.00 Build 0)  -->
<svg version="1.1" id="Layer_1" xmlns="http://www.w3.org/2000/svg" xmlns:xlink="http://www.w3.org/1999/xlink" x="0px" y="0px"
	 viewBox="0 0 70 58" style="enable-background:new 0 0 70 58;" xml:space="preserve">
<style type="text/css">
	.st0{fill-rule:evenodd;clip-rule:evenodd;fill:url(#SVGID_1_);}
	.st1{fill:#FFFFFF;filter:url(#Adobe_OpacityMaskFilter);}
	.st2{mask:url(#mask0_1_);}
	.st3{fill:#FFFFFF;}
	.st4{fill:#FFFFFF;filter:url(#Adobe_OpacityMaskFilter_1_);}
	.st5{mask:url(#mask1_1_);}
</style>
<g>
	
		<linearGradient id="SVGID_1_" gradientUnits="userSpaceOnUse" x1="15.1387" y1="32.5121" x2="54.8613" y2="29.9879" gradientTransform="matrix(1 0 0 -1 0 60)">
		<stop  offset="0" style="stop-color:#2A5EAB"/>
		<stop  offset="1" style="stop-color:#27A0DA"/>
	</linearGradient>
	<path class="st0" d="M35,47.5c10.4,0,18.8-8.4,18.8-18.8S45.4,10,35,10s-18.8,8.4-18.8,18.8S24.6,47.5,35,47.5z"/>
	<path d="M46.9,28.2l-6.7-6.7c-0.3-0.3-0.8-0.3-1.1,0L38,22.6c-0.3,0.3-0.3,0.8,0,1.1l5,5.1l-5,5.1c-0.3,0.3-0.3,0.8,0,1.1l1.1,1.1
		c0.3,0.3,0.8,0.3,1.1,0l6.7-6.7C47.3,29,47.3,28.5,46.9,28.2z"/>
	<defs>
		<filter id="Adobe_OpacityMaskFilter" filterUnits="userSpaceOnUse" x="22.5" y="10" width="37.5" height="37.5">
			<feColorMatrix  type="matrix" values="1 0 0 0 0  0 1 0 0 0  0 0 1 0 0  0 0 0 1 0"/>
		</filter>
	</defs>
	<mask maskUnits="userSpaceOnUse" x="22.5" y="10" width="37.5" height="37.5" id="mask0_1_">
		<path class="st1" d="M46.9,28.2l-6.7-6.7c-0.3-0.3-0.8-0.3-1.1,0L38,22.6c-0.3,0.3-0.3,0.8,0,1.1l5,5.1l-5,5.1
			c-0.3,0.3-0.3,0.8,0,1.1l1.1,1.1c0.3,0.3,0.8,0.3,1.1,0l6.7-6.7C47.3,29,47.3,28.5,46.9,28.2z"/>
	</mask>
	<g class="st2">
		<rect x="22.5" y="10" class="st3" width="37.5" height="37.5"/>
	</g>
	<path d="M23.1,28.2l6.7-6.7c0.3-0.3,0.8-0.3,1.1,0l1.1,1.1c0.3,0.3,0.3,0.8,0,1.1l-5,5.1l5,5.1c0.3,0.3,0.3,0.8,0,1.1L30.9,36
		c-0.3,0.3-0.8,0.3-1.1,0l-6.7-6.7C22.7,29,22.7,28.5,23.1,28.2z"/>
	<defs>
		<filter id="Adobe_OpacityMaskFilter_1_" filterUnits="userSpaceOnUse" x="10" y="10" width="37.5" height="37.5">
			<feColorMatrix  type="matrix" values="1 0 0 0 0  0 1 0 0 0  0 0 1 0 0  0 0 0 1 0"/>
		</filter>
	</defs>
	<mask maskUnits="userSpaceOnUse" x="10" y="10" width="37.5" height="37.5" id="mask1_1_">
		<path class="st4" d="M23.1,28.2l6.7-6.7c0.3-0.3,0.8-0.3,1.1,0l1.1,1.1c0.3,0.3,0.3,0.8,0,1.1l-5,5.1l5,5.1c0.3,0.3,0.3,0.8,0,1.1
			L30.9,36c-0.3,0.3-0.8,0.3-1.1,0l-6.7-6.7C22.7,29,22.7,28.5,23.1,28.2z"/>
	</mask>
	<g class="st5">
		<rect x="10" y="10" class="st3" width="37.5" height="37.5"/>
	</g>
</g>
</svg>
