<svg width="18" height="20" viewBox="0 0 18 20" fill="#130F25" xmlns="http://www.w3.org/2000/svg">
<path d="M5.75 9.16797C6.02614 9.16797 6.25 9.39183 6.25 9.66797V10.5013C6.25 10.7774 6.02614 11.0013 5.75 11.0013H4.91667C4.64053 11.0013 4.41667 10.7774 4.41667 10.5013V9.66797C4.41667 9.39183 4.64052 9.16797 4.91667 9.16797H5.75ZM9.41667 9.16797C9.69281 9.16797 9.91667 9.39183 9.91667 9.66797V10.5013C9.91667 10.7774 9.69281 11.0013 9.41667 11.0013H8.58333C8.30719 11.0013 8.08333 10.7774 8.08333 10.5013V9.66797C8.08333 9.39183 8.30719 9.16797 8.58333 9.16797H9.41667ZM13.0833 9.16797C13.3595 9.16797 13.5833 9.39183 13.5833 9.66797V10.5013C13.5833 10.7774 13.3595 11.0013 13.0833 11.0013H12.25C11.9739 11.0013 11.75 10.7774 11.75 10.5013V9.66797C11.75 9.39183 11.9739 9.16797 12.25 9.16797H13.0833ZM16.25 2.7513C16.8023 2.7513 17.25 3.19638 17.25 3.74867C17.25 6.65252 17.25 15.0955 17.25 18.2576C17.25 18.8098 16.8023 19.2513 16.25 19.2513H1.75C1.19772 19.2513 0.75 18.8041 0.75 18.2518C0.75 13.8162 0.750001 8.18636 0.75 3.75078C0.75 3.1985 1.19765 2.7513 1.74993 2.7513C2.60285 2.7513 3.5 2.7513 3.5 2.7513V1.41797C3.5 1.14183 3.72386 0.917969 4 0.917969H4.83333C5.10948 0.917969 5.33333 1.14183 5.33333 1.41797V2.7513H12.6667V1.41797C12.6667 1.14183 12.8905 0.917969 13.1667 0.917969H14C14.2761 0.917969 14.5 1.14183 14.5 1.41797V2.7513H16.25ZM15.4167 17.418V7.33464H2.58333V17.418H15.4167ZM5.75 12.8346C6.02614 12.8346 6.25 13.0585 6.25 13.3346V14.168C6.25 14.4441 6.02614 14.668 5.75 14.668H4.91667C4.64053 14.668 4.41667 14.4441 4.41667 14.168V13.3346C4.41667 13.0585 4.64052 12.8346 4.91667 12.8346H5.75ZM9.41667 12.8346C9.69281 12.8346 9.91667 13.0585 9.91667 13.3346V14.168C9.91667 14.4441 9.69281 14.668 9.41667 14.668H8.58333C8.30719 14.668 8.08333 14.4441 8.08333 14.168V13.3346C8.08333 13.0585 8.30719 12.8346 8.58333 12.8346H9.41667ZM13.0833 12.8346C13.3595 12.8346 13.5833 13.0585 13.5833 13.3346V14.168C13.5833 14.4441 13.3595 14.668 13.0833 14.668H12.25C11.9739 14.668 11.75 14.4441 11.75 14.168V13.3346C11.75 13.0585 11.9739 12.8346 12.25 12.8346H13.0833Z"/>
</svg>
