<svg width="20" height="20" viewBox="0 0 20 20" fill="#130F25" xmlns="http://www.w3.org/2000/svg">
<path d="M9.55359 5.41475H10.4703C10.7234 5.41475 10.9286 5.61996 10.9286 5.87308V9.61162L13.5866 12.2696C13.7655 12.4486 13.7655 12.7388 13.5866 12.9178L12.9384 13.566C12.7594 13.745 12.4692 13.745 12.2902 13.566L9.09526 10.371V5.87308C9.09526 5.61996 9.30048 5.41475 9.55359 5.41475Z"/>
<path fill-rule="evenodd" d="M0.833344 9.9987C0.833344 4.94427 4.94559 0.832031 10 0.832031C15.0544 0.832031 19.1667 4.94427 19.1667 9.9987C19.1667 15.0531 15.0544 19.1654 10 19.1654C4.94559 19.1654 0.833344 15.0531 0.833344 9.9987ZM2.66668 9.9987C2.66668 5.95516 5.95647 2.66536 10 2.66536C14.0435 2.66536 17.3333 5.95516 17.3333 9.9987C17.3333 14.0422 14.0435 17.332 10 17.332C5.95647 17.332 2.66668 14.0422 2.66668 9.9987Z"/>
</svg>
