<svg width="20" height="20" viewBox="0 0 20 20" fill="#130F25" xmlns="http://www.w3.org/2000/svg">
<path fill-rule="evenodd" d="M0.833344 9.9987C0.833344 4.93611 4.93742 0.832031 10 0.832031C12.4312 0.832031 14.7627 1.79782 16.4818 3.51691C18.2009 5.23599 19.1667 7.56749 19.1667 9.9987C19.1667 12.4299 18.2009 14.7614 16.4818 16.4805C14.7627 18.1996 12.4312 19.1654 10 19.1654C7.56881 19.1654 5.2373 18.1996 3.51822 16.4805C1.79913 14.7614 0.833344 12.4299 0.833344 9.9987ZM2.66668 9.9987C2.66668 9.36569 2.74691 8.75137 2.89775 8.16536H6.07329C6.0028 8.76681 5.96665 9.37878 5.96665 9.99915C5.96665 10.6148 6.00313 11.2268 6.07475 11.832H2.89954C2.74612 11.2382 2.66668 10.6225 2.66668 9.9987ZM3.64914 13.6654C3.96682 14.2157 4.35745 14.727 4.81455 15.1842C5.60399 15.9736 6.5549 16.5644 7.58962 16.9246C7.07489 15.887 6.67687 14.7939 6.40384 13.6654H3.64914ZM8.2976 13.6654C8.66887 15.0077 9.24257 16.2875 10 17.4599C10.7574 16.2875 11.331 15.0077 11.7024 13.6654H8.2976ZM13.596 13.6654C13.3227 14.7939 12.9243 15.8871 12.4095 16.9248C13.4446 16.5647 14.3958 15.9738 15.1855 15.1842C15.6426 14.727 16.0332 14.2157 16.3509 13.6654H13.596ZM17.1005 11.832H13.9253C13.997 11.2268 14.0334 10.6148 14.0334 9.99915C14.0334 9.38315 13.9969 8.77096 13.9252 8.16536H17.1005C17.2539 8.75921 17.3333 9.37487 17.3333 9.9987C17.3333 10.6225 17.2539 11.2382 17.1005 11.832ZM12.0774 11.832H7.92263C7.84139 11.2279 7.79999 10.6157 7.79999 9.99915C7.79999 9.37744 7.84128 8.76525 7.92117 8.16536H12.0773C12.1586 8.76984 12.2 9.38236 12.2 9.99915C12.2 10.6157 12.1586 11.2279 12.0774 11.832ZM6.40037 6.33203H3.64768C4.52071 4.82275 5.91608 3.65353 7.58671 3.07167C7.07601 4.09922 6.67541 5.19112 6.40037 6.33203ZM8.29424 6.33203H11.7021C11.3305 4.98926 10.7566 3.70904 9.99911 2.53657C9.24996 3.69337 8.66999 4.97035 8.29424 6.33203ZM13.5958 6.33203H16.3509C16.0332 5.78172 15.6426 5.27034 15.1855 4.81324C14.3958 4.02358 13.4446 3.43254 12.4094 3.07245C12.9242 4.11019 13.3226 5.20354 13.5958 6.33203Z"/>
</svg>
