<svg width="20" height="20" viewBox="0 0 20 20" fill="#130f25" xmlns="http://www.w3.org/2000/svg">
  <polygon points="8,7 14,10 8,13"/>
  <path fill-rule="evenodd" d="M0.833344 9.9987C0.833344 4.94427 4.94559 0.832031 10 0.832031C15.0544 0.832031 19.1667 4.94427 19.1667 9.9987C19.1667 15.0531 15.0544 19.1654 10 19.1654C4.94559 19.1654 0.833344 15.0531 0.833344 9.9987ZM2.66668 9.9987C2.66668 5.95516 5.95647 2.66536 10 2.66536C14.0435 2.66536 17.3333 5.95516 17.3333 9.9987C17.3333 14.0422 14.0435 17.332 10 17.332C5.95647 17.332 2.66668 14.0422 2.66668 9.9987Z"/>
</svg>