<?xml version="1.0" encoding="utf-8"?>
<!-- Generator: Adobe Illustrator 19.0.0, SVG Export Plug-In . SVG Version: 6.00 Build 0)  -->
<svg version="1.1" id="Layer_1" xmlns="http://www.w3.org/2000/svg" xmlns:xlink="http://www.w3.org/1999/xlink" x="0px" y="0px"
	 viewBox="0 0 218.1 58.3" style="enable-background:new 0 0 218.1 58.3;" xml:space="preserve">
<style type="text/css">
	.st0{fill:#FFFFFF;}
</style>
<g>
	<g id="XMLID_234_">
		<g id="XMLID_238_">
			<g id="XMLID_263_">
				<path id="XMLID_264_" class="st0" d="M69.7,29.9c1.5,0,2.4-0.8,2.4-2v0c0-1.3-1-2-2.4-2h-2.3v4.1H69.7z M65.4,24.1h4.5
					c2.6,0,4.3,1.5,4.3,3.8v0c0,2.5-2,3.9-4.5,3.9h-2.2v3.6h-2V24.1z"/>
			</g>
			<polygon id="XMLID_262_" class="st0" points="79,24.1 81,24.1 81,33.6 87,33.6 87,35.4 79,35.4 			"/>
			<g id="XMLID_257_">
				<path id="XMLID_261_" class="st0" d="M91.4,30.6v-6.5h2v6.4c0,2.1,1.1,3.2,2.9,3.2c1.8,0,2.8-1.1,2.8-3.1v-6.5h2v6.4
					c0,3.4-1.9,5.1-4.9,5.1C93.3,35.5,91.4,33.9,91.4,30.6"/>
				<path id="XMLID_258_" class="st0" d="M111.6,29.7c1.4,0,2.3-0.7,2.3-1.9v0c0-1.2-0.9-1.9-2.3-1.9h-2.9v3.8H111.6z M106.7,24.1h5
					c1.4,0,2.5,0.4,3.3,1.1c0.6,0.6,0.9,1.5,0.9,2.4v0c0,1.9-1.1,3-2.7,3.4l3,4.3h-2.3l-2.8-3.9h-2.5v3.9h-2V24.1z"/>
			</g>
			<path id="XMLID_254_" class="st0" d="M128.1,30.9l-2-4.5l-1.9,4.5H128.1z M125.3,24h1.8l5,11.4H130l-1.1-2.7h-5.3l-1.2,2.7h-2
				L125.3,24z"/>
			<polygon id="XMLID_253_" class="st0" points="136.9,24.1 138.9,24.1 138.9,33.6 144.8,33.6 144.8,35.4 136.9,35.4 			"/>
			<g id="XMLID_251_">
				<path id="XMLID_252_" class="st0" d="M149,33.7l1.2-1.4c1.1,0.9,2.2,1.5,3.6,1.5c1.2,0,2-0.6,2-1.4v0c0-0.8-0.5-1.2-2.5-1.7
					c-2.4-0.6-3.8-1.3-3.8-3.4v0c0-1.9,1.6-3.3,3.9-3.3c1.6,0,3,0.5,4.1,1.4l-1.1,1.5c-1-0.8-2-1.2-3.1-1.2c-1.2,0-1.8,0.6-1.8,1.3
					v0c0,0.9,0.5,1.3,2.7,1.8c2.4,0.6,3.6,1.4,3.6,3.3v0c0,2.1-1.7,3.4-4,3.4C152,35.5,150.4,34.9,149,33.7"/>
			</g>
			<rect id="XMLID_250_" x="163.1" y="24.1" class="st0" width="2" height="11.3"/>
			<g id="XMLID_248_">
				<path id="XMLID_249_" class="st0" d="M170.5,29.8L170.5,29.8c0-3.2,2.4-5.9,5.8-5.9c2,0,3.2,0.5,4.3,1.5l-1.3,1.5
					c-0.9-0.7-1.7-1.2-3.2-1.2c-2.1,0-3.7,1.8-3.7,4v0c0,2.3,1.5,4,3.8,4c1.1,0,2-0.3,2.7-0.9v-2.1h-2.9v-1.7h4.8v4.7
					c-1.1,1-2.7,1.8-4.7,1.8C172.8,35.6,170.5,33,170.5,29.8"/>
			</g>
			<polygon id="XMLID_247_" class="st0" points="186.5,24.1 188.5,24.1 188.5,28.8 193.9,28.8 193.9,24.1 195.9,24.1 195.9,35.4 
				193.9,35.4 193.9,30.6 188.5,30.6 188.5,35.4 186.5,35.4 			"/>
			<polygon id="XMLID_246_" class="st0" points="200.9,24.1 200.9,25.9 204.5,25.9 204.5,35.4 206.5,35.4 206.5,25.9 210.1,25.9 
				210.1,24.1 			"/>
			<g id="XMLID_239_">
				<path id="XMLID_243_" class="st0" d="M26.3,21.3v17L41,29.8L26.3,21.3z M24.5,41.3V18.4l19.8,11.5L24.5,41.3z"/>
				<path id="XMLID_240_" class="st0" d="M22.4,23.3v12.9l11.2-6.5L22.4,23.3z M20.8,39.1V20.6l16,9.2L20.8,39.1z"/>
			</g>
		</g>
		<path id="XMLID_235_" class="st0" d="M30.6,6.3c-13,0-23.5,10.5-23.5,23.5s10.5,23.5,23.5,23.5c13,0,23.5-10.5,23.5-23.5
			S43.5,6.3,30.6,6.3z M52,29.8c0,11.8-9.6,21.5-21.5,21.5S9.1,41.7,9.1,29.8S18.7,8.3,30.6,8.3S52,18,52,29.8z"/>
	</g>
</g>
</svg>
